<svg id="Layer_1" data-name="Layer 1" xmlns="http://www.w3.org/2000/svg" viewBox="0 0 69.23365 16"><defs><style>.cls-1{stroke:#231f20;stroke-miterlimit:10;stroke-width:0.25px;}.cls-2{fill:#231f20;}</style></defs><title>FWDlogo_svg</title><path class="cls-1" d="M.90757,15.74842l-.90686.00031L0,13.66544l.8633-.0003a.93806.93806,0,0,1,.31761.04948.62338.62338,0,0,1,.22881.1388.46806.46806,0,0,1,.13833.34009.55211.55211,0,0,1-.03143.19866.4704.4704,0,0,1-.08552.14458.51756.51756,0,0,1-.117.10358c-.01839.0112-.03722.02269-.05634.033a.93836.93836,0,0,1,.10312.04111.56314.56314,0,0,1,.15374.10406A.48093.48093,0,0,1,1.621,14.966a.45276.45276,0,0,1,.04027.19543.53844.53844,0,0,1-.055.24912.52489.52489,0,0,1-.15576.18344.78061.78061,0,0,1-.23707.11409A1.08476,1.08476,0,0,1,.90757,15.74842Zm-.69708-.19564.7045-.00024a.66267.66267,0,0,0,.39558-.10586.32529.32529,0,0,0,.14023-.27881.2983.2983,0,0,0-.14362-.27161.80415.80415,0,0,0-.44168-.09872l-.65527.00022Zm-.00032-.95047L.848,14.6021a.71648.71648,0,0,0,.1993-.02683.47273.47273,0,0,0,.15513-.07554.34271.34271,0,0,0,.10023-.12043.37553.37553,0,0,0,.03557-.16652.305.305,0,0,0-.119-.255.57107.57107,0,0,0-.35712-.0963l-.65222.00022Z"/><path class="cls-1" d="M3.64272,14.91641l-.8672-1.22168.18795-.00006.75744,1.08648.75974-1.087.17888-.00006L3.793,14.91417l.00028.80345-.1503,0Z"/><path class="cls-1" d="M3.82333,15.74742,3.613,15.7475l-.00028-.821-.89558-1.26194.262-.00009.009.01322.73278,1.051.74419-1.06473.25267-.00009-.8947,1.26008Z"/><path class="cls-1" d="M9.00307,12.97044l1.95264-.00067.00007.18541-1.74892.0006.00037,1.08556,1.57267-.00054.00006.1844-1.57266.00054.00037,1.1052,1.76832-.0006.00007.18482L9.004,15.71584Z"/><path class="cls-1" d="M12.80641,12.96914l.2038-.00007.00088,2.56057,1.61133-.00055.00007.18483-1.81514.00062Z"/><path class="cls-1" d="M17.3042,14.62686,16.12753,12.968l.25434-.00008,1.02827,1.47479,1.03068-1.4755.24291-.00008-1.17581,1.65544.00037,1.09036-.20372.00007Z"/><path class="cls-1" d="M21.32409,15.75059a1.53933,1.53933,0,0,1-.59452-.10929,1.82982,1.82982,0,0,1-.51207-.3295l.13373-.15288a2.01354,2.01354,0,0,0,.22532.18214,1.26379,1.26379,0,0,0,.47647.19993,1.46615,1.46615,0,0,0,.28213.02608.931.931,0,0,0,.2829-.04227.66487.66487,0,0,0,.21918-.11321.5181.5181,0,0,0,.14108-.1728.47415.47415,0,0,0,.05147-.21816v-.00755a.54309.54309,0,0,0-.03388-.19616.37393.37393,0,0,0-.12178-.157.90552.90552,0,0,0-.237-.12716,2.35833,2.35833,0,0,0-.38468-.10326,2.57818,2.57818,0,0,1-.42321-.12,1.03186,1.03186,0,0,1-.28813-.16015.56428.56428,0,0,1-.16317-.21329.72708.72708,0,0,1-.05077-.27947v-.00683a.622.622,0,0,1,.06694-.28549.71757.71757,0,0,1,.18336-.22852.8743.8743,0,0,1,.27865-.15352,1.10009,1.10009,0,0,1,.353-.05494,1.47369,1.47369,0,0,1,.51577.08185,1.551,1.551,0,0,1,.425.25127l-.12894.16074a1.181,1.181,0,0,0-.81984-.31033.86438.86438,0,0,0-.27622.04241.65779.65779,0,0,0-.21125.11176.49558.49558,0,0,0-.13606.165.44329.44329,0,0,0-.04668.19967v.00727a.55138.55138,0,0,0,.03367.19835.38005.38005,0,0,0,.12125.16123.84913.84913,0,0,0,.24515.13036,2.83325,2.83325,0,0,0,.39966.11037,1.5906,1.5906,0,0,1,.6907.27592.5969.5969,0,0,1,.21167.48084v.00786a.68033.68033,0,0,1-.06825.3038.70344.70344,0,0,1-.188.23652.875.875,0,0,1-.28644.15323A1.16214,1.16214,0,0,1,21.32409,15.75059Z"/><path class="cls-1" d="M24.07893,12.96528l1.95286-.00067.00007.18541-1.74913.0006.00038,1.08556,1.57287-.00053L25.856,14.42l-1.57287.00054.00038,1.1052,1.7689-.0006.00006.18483-1.97264.00067Z"/><path class="cls-1" d="M30.065,12.96323l.22745-.00007.86346,2.44306.80291-2.45135.15706,0,.80428,2.4508.86159-2.44366.2113-.00007-.994,2.76493-.16513.00006L32.02908,13.344l-.80278,2.38343-.16468.00006Z"/><path class="cls-1" d="M36.81736,12.94173l.19531-.00007,1.2797,2.76416-.22323.00007-.34992-.76885-1.61911.00055-.349.7691-.21129.00007Zm.816,1.81122-.72219-1.58745-.72488,1.588Z"/><path class="cls-1" d="M40.04805,12.95982l.2038-.00007.00087,2.56057,1.61184-.00055.00007.18483-1.81564.00062Z"/><path class="cls-1" d="M43.65077,12.95859l.20453-.00007.00062,1.80423,1.74764-1.80483.27818-.0001-1.19887,1.21264,1.251,1.53274-.26583.00009L44.53837,14.3155l-.68237.69011.00024.6983-.20453.00007Z"/><path class="cls-1" d="M47.63086,12.95722l1.95272-.00066.00006.18541-1.74854.00059.00037,1.08556,1.57229-.00053.00007.18439-1.5723.00054.00038,1.1052,1.768-.0006.00006.18483-1.97221.00067Z"/><path class="cls-1" d="M51.43465,12.95592l1.15232-.00039a1.29637,1.29637,0,0,1,.45112.07284.88049.88049,0,0,1,.32145.198.70456.70456,0,0,1,.15305.22942.72349.72349,0,0,1,.05506.2805v.00784a.74364.74364,0,0,1-.06038.30687.71214.71214,0,0,1-.16818.23389.88019.88019,0,0,1-.25529.159,1.307,1.307,0,0,1-.31961.08415l.90564,1.17252-.25842.00008-.87494-1.13718H52.5289l-.89056.0003.00039,1.13749-.20314.00007Zm1.12983,1.42343a1.11487,1.11487,0,0,0,.31932-.04344.7684.7684,0,0,0,.25256-.12413.596.596,0,0,0,.167-.1974.56231.56231,0,0,0,.0604-.26468v-.007a.53057.53057,0,0,0-.20665-.44157.92491.92491,0,0,0-.5816-.16021l-.93768.00032.00043,1.23841Z"/><path class="cls-2" d="M12.15145.14368A4.10218,4.10218,0,0,0,8.06129,4.2485a4.09759,4.09759,0,0,0,8.19512-.0028A4.10816,4.10816,0,0,0,12.15145.14368Zm.0026,7.57905A3.48688,3.48688,0,1,1,15.651,4.2459,3.485,3.485,0,0,1,12.15405,7.72273Z"/><path class="cls-2" d="M48.846,7.99019,45.42219.18551a.19822.19822,0,0,0-.19533-.10877h-.03375a.21115.21115,0,0,0-.18537.11139L41.5558,7.99558a.16288.16288,0,0,0,.00542.15489.1421.1421,0,0,0,.12568.0552l.314-.00011a.23792.23792,0,0,0,.208-.13472l3.00669-6.92619,1.84586,4.34644-3.48908.00119-.24194.549,3.96927-.00136L48.195,8.0717a.23751.23751,0,0,0,.20741.13167l.29143-.0001a.16832.16832,0,0,0,.14539-.05734A.17264.17264,0,0,0,48.846,7.99019Z"/><path class="cls-2" d="M56.34573,4.96322a2.50747,2.50747,0,0,0,1.82174-2.37811A2.47985,2.47985,0,0,0,55.61085.13179l-2.781.001a.19683.19683,0,0,0-.201.20141l.00258,7.55607a.20412.20412,0,0,0,.20119.20171l.23267-.00008a.20487.20487,0,0,0,.21922-.20621c-.00005-.13968-.00579-7.126-.00579-7.126L55.57792.75886a1.88782,1.88782,0,0,1,1.93981,1.82648,1.91446,1.91446,0,0,1-1.92807,1.896l-1.613.00055.0002.58285,1.299-.00044c.13365,0,.25056-.00009.383-.00929l1.60862,2.90321a.21252.21252,0,0,0,.20682.13212l.34741-.00012a.15706.15706,0,0,0,.14351-.078.207.207,0,0,0-.01636-.20743Z"/><path class="cls-2" d="M65.23046.12849,64.02593.12891l.0002.59332L65.14035.72185a3.3617,3.3617,0,0,1,3.42131,3.37391,3.33385,3.33385,0,0,1-3.419,3.39813l-1.83841.00063L63.30392.12915l-.45066.00016a.20113.20113,0,0,0-.19.20141l.00259,7.55607a.20137.20137,0,0,0,.19014.20171l2.3772-.00081a3.97966,3.97966,0,1,0-.00272-7.9592Z"/><path class="cls-2" d="M4.69711.2.20127.20151A.20428.20428,0,0,0,0,.40341L.00259,7.95993A.204.204,0,0,0,.204,8.16127l.23572-.00008a.18917.18917,0,0,0,.21364-.20148L.64967.795,4.69731.79358A.204.204,0,0,0,4.89857.59216L4.8985.40174A.20426.20426,0,0,0,4.69711.2Z"/><path class="cls-2" d="M4.35052,4.292a.20435.20435,0,0,0-.20177-.20156l-2.81768.001.0002.58314L4.149,4.6736a.18255.18255,0,0,0,.1358-.05233A.40306.40306,0,0,0,4.351,4.33114Z"/><path class="cls-2" d="M38.67254.16529a.193.193,0,0,0-.15432-.05477l-.26931.00009a.19521.19521,0,0,0-.18746.16381L36.23257,6.69756,34.28889.13829A.22733.22733,0,0,0,34.0678,0h-.02247a.23148.23148,0,0,0-.22252.14069L31.86423,6.80557l-.2918,1.02613.06684.231a.16289.16289,0,0,0,.15542.122l.12331,0a.1639.1639,0,0,0,.165-.11916l1.974-6.68487,1.97944,6.68817a.16272.16272,0,0,0,.164.11439l.12353,0a.16213.16213,0,0,0,.154-.11958L38.69681.3227A.18182.18182,0,0,0,38.67254.16529Z"/><path d="M31.72178,6.09481l-1.669-5.8111a.198.198,0,0,0-.18946-.17023l-.269.00009a.19249.19249,0,0,0-.15419.05488.18511.18511,0,0,0-.02256.16194l1.98372,6.90368Z"/><path class="cls-2" d="M23.92946,4.97431a2.50747,2.50747,0,0,0,1.82174-2.3781A2.47986,2.47986,0,0,0,23.1946.14288l-2.781.001a.19683.19683,0,0,0-.201.20141l.00259,7.556a.20419.20419,0,0,0,.20119.20178l.23267-.00008a.20489.20489,0,0,0,.21922-.20629c0-.1396-.00578-7.12591-.00578-7.12591L23.16165.77a1.88783,1.88783,0,0,1,1.93982,1.82648,1.91447,1.91447,0,0,1-1.92808,1.896l-1.613.00055.0002.58285,1.299-.00044c.13364,0,.25055-.00009.383-.00929l1.60862,2.90321a.21252.21252,0,0,0,.20684.13212l.34741-.00012a.157.157,0,0,0,.14349-.078.2069.2069,0,0,0-.01635-.20735Z"/></svg>